<svg xmlns="http://www.w3.org/2000/svg" width="98.558" height="95.256" viewBox="0 0 98.558 95.256">
  <g id="Grupo_57814" data-name="Grupo 57814" transform="translate(-136.873 -3296.448)">
    <g id="Grupo_61552" data-name="Grupo 61552" transform="translate(146.757 3304.736)">
      <g id="Grupo_61503" data-name="Grupo 61503" transform="translate(0 45.925)">
        <path id="Trazado_110548" data-name="Trazado 110548" d="M239.469,3450.6l-37.173,14.61a3.181,3.181,0,0,1-2.394,0l-37.157-14.61a1.642,1.642,0,0,1,0-3.05l10.707-4.215,26.465-10.412a3.183,3.183,0,0,1,2.394,0l26.449,10.412,10.708,4.215A1.642,1.642,0,0,1,239.469,3450.6Z" transform="translate(-161.712 -3432.687)" fill="#453d7a"/>
      </g>
      <g id="Grupo_61504" data-name="Grupo 61504" transform="translate(11.741 45.925)">
        <path id="Trazado_110549" data-name="Trazado 110549" d="M246.525,3443.333l-26.465,10.4a3.183,3.183,0,0,1-2.394,0l-26.449-10.4,26.465-10.412a3.183,3.183,0,0,1,2.394,0Z" transform="translate(-191.216 -3432.687)" fill="#00143c"/>
      </g>
      <g id="Grupo_61505" data-name="Grupo 61505" transform="translate(0 32.807)">
        <path id="Trazado_110550" data-name="Trazado 110550" d="M239.469,3417.631l-37.173,14.61a3.183,3.183,0,0,1-2.394,0l-37.157-14.61a1.642,1.642,0,0,1,0-3.05l10.707-4.214,26.465-10.412a3.183,3.183,0,0,1,2.394,0l26.449,10.412,10.708,4.214A1.642,1.642,0,0,1,239.469,3417.631Z" transform="translate(-161.712 -3399.721)" fill="#a194f5"/>
      </g>
      <g id="Grupo_61506" data-name="Grupo 61506" transform="translate(11.741 32.807)">
        <path id="Trazado_110551" data-name="Trazado 110551" d="M246.525,3410.367l-26.465,10.4a3.183,3.183,0,0,1-2.394,0l-26.449-10.4,26.465-10.412a3.183,3.183,0,0,1,2.394,0Z" transform="translate(-191.216 -3399.721)" fill="#b58f47"/>
      </g>
      <g id="Grupo_61507" data-name="Grupo 61507" transform="translate(0 19.69)">
        <path id="Trazado_110552" data-name="Trazado 110552" d="M239.469,3384.666l-37.173,14.61a3.183,3.183,0,0,1-2.394,0l-37.157-14.61a1.642,1.642,0,0,1,0-3.051l37.173-14.626a3.181,3.181,0,0,1,2.394,0l37.157,14.626a1.643,1.643,0,0,1,0,3.051Z" transform="translate(-161.712 -3366.756)" fill="#fab400"/>
      </g>
      <g id="Grupo_61508" data-name="Grupo 61508" transform="translate(0 19.69)">
        <path id="Trazado_110553" data-name="Trazado 110553" d="M239.469,3384.666l-37.173,14.61a3.183,3.183,0,0,1-2.394,0l-37.157-14.61a1.642,1.642,0,0,1,0-3.051l37.173-14.626a3.181,3.181,0,0,1,2.394,0l37.157,14.626a1.643,1.643,0,0,1,0,3.051Z" transform="translate(-161.712 -3366.756)" fill="#f7d99e"/>
      </g>
      <g id="Grupo_61509" data-name="Grupo 61509" transform="translate(10.363 19.69)">
        <path id="Trazado_110554" data-name="Trazado 110554" d="M245.883,3377.959a9.464,9.464,0,0,1-8.986,6.822,9.885,9.885,0,0,1-9.3-6.887l-.607-1.837a1.641,1.641,0,0,0-1.558-1.115H221.4a4.9,4.9,0,0,1-9.248,0H208.12a1.641,1.641,0,0,0-1.558,1.115l-.738,2.214a9.452,9.452,0,0,1-18.07-.328c3.542-1.394,9.1-3.574,27.843-10.953a3.181,3.181,0,0,1,2.394,0C236.537,3374.286,242.342,3376.582,245.883,3377.959Z" transform="translate(-187.754 -3366.756)" fill="#453d7a"/>
      </g>
      <g id="Grupo_61511" data-name="Grupo 61511" transform="translate(9.871 3.279)">
        <g id="Grupo_61510" data-name="Grupo 61510">
          <path id="Trazado_110555" data-name="Trazado 110555" d="M245.549,3332.076v16.709a9.515,9.515,0,0,1-9.393,9.525,9.86,9.86,0,0,1-9.294-6.88l-.616-1.838a1.64,1.64,0,0,0-1.555-1.118H207.376a1.64,1.64,0,0,0-1.555,1.118l-.741,2.21a9.529,9.529,0,0,1-9.855,6.475,9.8,9.8,0,0,1-8.707-9.889v-16.312a6.56,6.56,0,0,1,6.559-6.559H238.99a6.56,6.56,0,0,1,6.559,6.559Z" transform="translate(-186.518 -3325.517)" fill="#b8aff8"/>
        </g>
      </g>
      <g id="Grupo_61513" data-name="Grupo 61513" transform="translate(34.468 21.317)">
        <g id="Grupo_61512" data-name="Grupo 61512">
          <path id="Trazado_110556" data-name="Trazado 110556" d="M258.167,3375.764h-9.838a4.919,4.919,0,1,1,9.838,0Z" transform="translate(-248.329 -3370.845)" fill="#0082aa"/>
        </g>
      </g>
      <g id="Grupo_61515" data-name="Grupo 61515" transform="translate(32.828 16.397)">
        <g id="Grupo_61514" data-name="Grupo 61514">
          <path id="Trazado_110557" data-name="Trazado 110557" d="M248.307,3360.123h-3.28a.82.82,0,0,1,0-1.64h3.28a.82.82,0,0,1,0,1.64Z" transform="translate(-244.208 -3358.483)" fill="#453d7a"/>
        </g>
      </g>
      <g id="Grupo_61517" data-name="Grupo 61517" transform="translate(41.027 16.397)">
        <g id="Grupo_61516" data-name="Grupo 61516">
          <path id="Trazado_110558" data-name="Trazado 110558" d="M268.911,3360.123h-3.279a.82.82,0,0,1,0-1.64h3.279a.82.82,0,1,1,0,1.64Z" transform="translate(-264.812 -3358.483)" fill="#453d7a"/>
        </g>
      </g>
      <g id="Grupo_61519" data-name="Grupo 61519" transform="translate(16.43 11.478)">
        <g id="Grupo_61518" data-name="Grupo 61518">
          <path id="Trazado_110559" data-name="Trazado 110559" d="M211.2,3349.4a1.641,1.641,0,0,1-1.64-1.64,1.64,1.64,0,0,0-3.28,0,1.64,1.64,0,0,1-1.639,1.64,1.64,1.64,0,0,0,0,3.28,1.64,1.64,0,0,1,1.639,1.64,1.64,1.64,0,0,0,3.28,0,1.64,1.64,0,0,1,1.64-1.64,1.64,1.64,0,0,0,0-3.28Z" transform="translate(-203.001 -3346.121)" fill="#453d7a"/>
        </g>
      </g>
      <g id="Grupo_61521" data-name="Grupo 61521" transform="translate(55.784 18.037)">
        <g id="Grupo_61520" data-name="Grupo 61520">
          <circle id="Elipse_4457" data-name="Elipse 4457" cx="1.64" cy="1.64" r="1.64" fill="#453d7a"/>
        </g>
      </g>
      <g id="Grupo_61523" data-name="Grupo 61523" transform="translate(55.784 11.478)">
        <g id="Grupo_61522" data-name="Grupo 61522">
          <circle id="Elipse_4458" data-name="Elipse 4458" cx="1.64" cy="1.64" r="1.64" fill="#453d7a"/>
        </g>
      </g>
      <g id="Grupo_61525" data-name="Grupo 61525" transform="translate(52.505 14.758)">
        <g id="Grupo_61524" data-name="Grupo 61524">
          <circle id="Elipse_4459" data-name="Elipse 4459" cx="1.64" cy="1.64" r="1.64" fill="#453d7a"/>
        </g>
      </g>
      <g id="Grupo_61527" data-name="Grupo 61527" transform="translate(59.064 14.758)">
        <g id="Grupo_61526" data-name="Grupo 61526">
          <circle id="Elipse_4460" data-name="Elipse 4460" cx="1.64" cy="1.64" r="1.64" fill="#453d7a"/>
        </g>
      </g>
      <g id="Grupo_61529" data-name="Grupo 61529" transform="translate(29.548 1.64)">
        <g id="Grupo_61528" data-name="Grupo 61528">
          <path id="Trazado_110560" data-name="Trazado 110560" d="M254,3327.956h-16.4a1.64,1.64,0,0,1-1.639-1.64v-3.28a1.64,1.64,0,0,1,1.639-1.64H254a1.64,1.64,0,0,1,1.64,1.64v3.28A1.641,1.641,0,0,1,254,3327.956Z" transform="translate(-235.967 -3321.397)" fill="#453d7a"/>
        </g>
      </g>
      <g id="Grupo_61531" data-name="Grupo 61531" transform="translate(34.468 19.677)">
        <g id="Grupo_61530" data-name="Grupo 61530">
          <circle id="Elipse_4461" data-name="Elipse 4461" cx="4.919" cy="4.919" r="4.919" fill="#00143c"/>
        </g>
      </g>
      <g id="Grupo_61533" data-name="Grupo 61533" transform="translate(32.828 14.758)">
        <g id="Grupo_61532" data-name="Grupo 61532">
          <path id="Trazado_110561" data-name="Trazado 110561" d="M248.307,3356h-3.28a.82.82,0,0,1,0-1.64h3.28a.82.82,0,0,1,0,1.64Z" transform="translate(-244.208 -3354.362)" fill="#00143c"/>
        </g>
      </g>
      <g id="Grupo_61535" data-name="Grupo 61535" transform="translate(41.027 14.758)">
        <g id="Grupo_61534" data-name="Grupo 61534">
          <path id="Trazado_110562" data-name="Trazado 110562" d="M268.911,3356h-3.279a.82.82,0,0,1,0-1.64h3.279a.82.82,0,1,1,0,1.64Z" transform="translate(-264.812 -3354.362)" fill="#00143c"/>
        </g>
      </g>
      <g id="Grupo_61537" data-name="Grupo 61537" transform="translate(16.43 9.838)">
        <g id="Grupo_61536" data-name="Grupo 61536">
          <path id="Trazado_110563" data-name="Trazado 110563" d="M211.2,3345.28a1.64,1.64,0,0,1-1.64-1.64,1.64,1.64,0,1,0-3.28,0,1.64,1.64,0,0,1-1.639,1.64,1.64,1.64,0,1,0,0,3.279,1.641,1.641,0,0,1,1.639,1.64,1.64,1.64,0,0,0,3.28,0,1.641,1.641,0,0,1,1.64-1.64,1.64,1.64,0,0,0,0-3.279Z" transform="translate(-203.001 -3342)" fill="#00143c"/>
        </g>
      </g>
      <g id="Grupo_61539" data-name="Grupo 61539" transform="translate(16.43 0)">
        <g id="Grupo_61538" data-name="Grupo 61538">
          <path id="Trazado_110564" data-name="Trazado 110564" d="M211.2,3317.276h-6.559a1.64,1.64,0,0,0-1.64,1.64v1.639h9.838v-1.639A1.64,1.64,0,0,0,211.2,3317.276Z" transform="translate(-203.001 -3317.276)" fill="#00143c"/>
        </g>
      </g>
      <g id="Grupo_61541" data-name="Grupo 61541" transform="translate(52.505 0)">
        <g id="Grupo_61540" data-name="Grupo 61540">
          <path id="Trazado_110565" data-name="Trazado 110565" d="M301.856,3317.276H295.3a1.64,1.64,0,0,0-1.639,1.64v1.639H303.5v-1.639A1.64,1.64,0,0,0,301.856,3317.276Z" transform="translate(-293.657 -3317.276)" fill="#00143c"/>
        </g>
      </g>
      <g id="Grupo_61543" data-name="Grupo 61543" transform="translate(55.784 16.398)">
        <g id="Grupo_61542" data-name="Grupo 61542">
          <circle id="Elipse_4462" data-name="Elipse 4462" cx="1.64" cy="1.64" r="1.64" fill="#00143c"/>
        </g>
      </g>
      <g id="Grupo_61545" data-name="Grupo 61545" transform="translate(55.784 9.839)">
        <g id="Grupo_61544" data-name="Grupo 61544">
          <circle id="Elipse_4463" data-name="Elipse 4463" cx="1.64" cy="1.64" r="1.64" fill="#00143c"/>
        </g>
      </g>
      <g id="Grupo_61547" data-name="Grupo 61547" transform="translate(52.505 13.118)">
        <g id="Grupo_61546" data-name="Grupo 61546">
          <circle id="Elipse_4464" data-name="Elipse 4464" cx="1.64" cy="1.64" r="1.64" fill="#00143c"/>
        </g>
      </g>
      <g id="Grupo_61549" data-name="Grupo 61549" transform="translate(59.064 13.118)">
        <g id="Grupo_61548" data-name="Grupo 61548">
          <circle id="Elipse_4465" data-name="Elipse 4465" cx="1.64" cy="1.64" r="1.64" fill="#00143c"/>
        </g>
      </g>
      <g id="Grupo_61551" data-name="Grupo 61551" transform="translate(29.548 0)">
        <g id="Grupo_61550" data-name="Grupo 61550">
          <path id="Trazado_110566" data-name="Trazado 110566" d="M254,3323.835h-16.4a1.64,1.64,0,0,1-1.639-1.64v-3.279a1.64,1.64,0,0,1,1.639-1.64H254a1.64,1.64,0,0,1,1.64,1.64v3.279A1.64,1.64,0,0,1,254,3323.835Z" transform="translate(-235.967 -3317.276)" fill="#00143c"/>
        </g>
      </g>
    </g>
    <rect id="Rectángulo_6652" data-name="Rectángulo 6652" width="98.558" height="95.256" transform="translate(136.873 3296.448)" fill="none"/>
  </g>
</svg>
