<svg id="menu" xmlns="http://www.w3.org/2000/svg" width="55" height="55" viewBox="0 0 55 55">
  <path id="Trazado_683810" data-name="Trazado 683810" d="M44.688,55H10.313A10.312,10.312,0,0,1,0,44.688V10.313A10.312,10.312,0,0,1,10.313,0H44.688A10.312,10.312,0,0,1,55,10.313V44.688A10.312,10.312,0,0,1,44.688,55Zm0,0" fill="#f5e6fe"/>
  <g id="Grupo_156909" data-name="Grupo 156909" transform="translate(17.188 18.334)">
    <path id="Trazado_683811" data-name="Trazado 683811" d="M179.479,170.672H161.146A1.147,1.147,0,0,0,160,171.818v2.291a1.147,1.147,0,0,0,1.146,1.146H179.48a1.147,1.147,0,0,0,1.146-1.146v-2.291A1.15,1.15,0,0,0,179.479,170.672Zm0,0" transform="translate(-160 -170.672)" fill="#be63f9"/>
    <path id="Trazado_683812" data-name="Trazado 683812" d="M179.479,234.672H161.146A1.147,1.147,0,0,0,160,235.818v2.291a1.147,1.147,0,0,0,1.146,1.146H179.48a1.147,1.147,0,0,0,1.146-1.146v-2.291A1.15,1.15,0,0,0,179.479,234.672Zm0,0" transform="translate(-160 -227.797)" fill="#be63f9"/>
    <path id="Trazado_683813" data-name="Trazado 683813" d="M179.479,298.672H161.146A1.147,1.147,0,0,0,160,299.818v2.291a1.147,1.147,0,0,0,1.146,1.146H179.48a1.147,1.147,0,0,0,1.146-1.146v-2.291A1.15,1.15,0,0,0,179.479,298.672Zm0,0" transform="translate(-160 -284.922)" fill="#be63f9"/>
  </g>
</svg>
