<svg id="idea" xmlns="http://www.w3.org/2000/svg" width="55" height="60.544" viewBox="0 0 55 60.544">
  <path id="Trazado_683878" data-name="Trazado 683878" d="M37.577,52v4.231a5.29,5.29,0,0,1-5.288,5.288,5.37,5.37,0,0,1-2.221-.487A5.3,5.3,0,0,1,27,56.231V52Z" transform="translate(-4.788 -0.976)" fill="#b3b3b3"/>
  <path id="Trazado_683879" data-name="Trazado 683879" d="M33.685,52a17.347,17.347,0,0,1-3.617,9.033A5.3,5.3,0,0,1,27,56.231V52Z" transform="translate(-4.788 -0.976)" fill="#ccc"/>
  <path id="Trazado_683880" data-name="Trazado 683880" d="M43.373,35.24a7.974,7.974,0,0,0-3.046,6.293v.487H25.519v-.487a8.014,8.014,0,0,0-3.079-6.315A16.931,16.931,0,0,1,34.848,5.106c.212.021.413.053.613.085A16.925,16.925,0,0,1,43.373,35.24Z" transform="translate(-5.423 -3.688)" fill="#ffc239"/>
  <path id="Trazado_683881" data-name="Trazado 683881" d="M35.462,5.191A87.916,87.916,0,0,1,26.7,42.019H25.519v-.487a8.014,8.014,0,0,0-3.079-6.315A16.931,16.931,0,0,1,34.848,5.106c.212.021.413.053.613.085Z" transform="translate(-5.423 -3.688)" fill="#ffe266"/>
  <path id="Trazado_683882" data-name="Trazado 683882" d="M35.635,42.038a1.058,1.058,0,0,1-1.058-1.058V29.346H30.346V40.981a1.058,1.058,0,0,1-2.115,0V29.346H27.173a3.173,3.173,0,1,1,3.173-3.173v1.058h4.231V26.173a3.173,3.173,0,1,1,3.173,3.173H36.692V40.981A1.058,1.058,0,0,1,35.635,42.038Zm1.058-14.808H37.75a1.058,1.058,0,1,0-1.058-1.058Zm-9.519-2.115a1.058,1.058,0,0,0,0,2.115h1.058V26.173a1.059,1.059,0,0,0-1.058-1.058Z" transform="translate(-4.962 -2.649)" fill="#ffad1d"/>
  <g id="Grupo_157034" data-name="Grupo 157034">
    <path id="Trazado_683883" data-name="Trazado 683883" d="M12.346,21.115H7.058a1.058,1.058,0,1,1,0-2.115h5.288a1.058,1.058,0,1,1,0,2.115Z" transform="translate(-6 -2.88)" fill="#ffc239"/>
    <path id="Trazado_683884" data-name="Trazado 683884" d="M16.424,9.109a1.05,1.05,0,0,1-.644-.219L11.586,5.669a1.058,1.058,0,1,1,1.288-1.678l4.194,3.221a1.058,1.058,0,0,1-.645,1.9Z" transform="translate(-5.702 -3.758)" fill="#ffc239"/>
    <path id="Trazado_683885" data-name="Trazado 683885" d="M12.231,36.518a1.058,1.058,0,0,1-.645-1.9L15.78,31.4a1.058,1.058,0,1,1,1.288,1.678L12.874,36.3a1.05,1.05,0,0,1-.644.219Z" transform="translate(-5.702 -2.177)" fill="#ffc239"/>
    <path id="Trazado_683886" data-name="Trazado 683886" d="M57.346,21.115H52.058a1.058,1.058,0,1,1,0-2.115h5.288a1.058,1.058,0,1,1,0,2.115Z" transform="translate(-3.404 -2.88)" fill="#ffc239"/>
    <path id="Trazado_683887" data-name="Trazado 683887" d="M47.921,9.11a1.058,1.058,0,0,1-.645-1.9L51.47,3.993A1.058,1.058,0,1,1,52.758,5.67L48.564,8.891a1.05,1.05,0,0,1-.643.219Z" transform="translate(-3.643 -3.759)" fill="#ffc239"/>
    <path id="Trazado_683888" data-name="Trazado 683888" d="M52.114,36.518a1.05,1.05,0,0,1-.643-.219l-4.194-3.221A1.058,1.058,0,1,1,48.564,31.4l4.194,3.221a1.058,1.058,0,0,1-.645,1.9Z" transform="translate(-3.643 -2.177)" fill="#ffc239"/>
  </g>
  <path id="Trazado_683889" data-name="Trazado 683889" d="M42.038,46.4a3.145,3.145,0,0,1-.825,2.115,3.146,3.146,0,0,1,.825,2.115,3.182,3.182,0,0,1-3.173,3.173H26.173A3.182,3.182,0,0,1,23,50.635a3.145,3.145,0,0,1,.825-2.115,3.125,3.125,0,0,1,0-4.231A3.145,3.145,0,0,1,23,42.173,3.182,3.182,0,0,1,26.173,39H38.865a3.182,3.182,0,0,1,3.173,3.173,3.145,3.145,0,0,1-.825,2.115A3.145,3.145,0,0,1,42.038,46.4Z" transform="translate(-5.019 -1.726)" fill="#e6e6e6"/>
  <path id="Trazado_683890" data-name="Trazado 683890" d="M34.011,39a25.254,25.254,0,0,1-6.378,14.808h-1.46A3.182,3.182,0,0,1,23,50.635a3.145,3.145,0,0,1,.825-2.115,3.125,3.125,0,0,1,0-4.231A3.145,3.145,0,0,1,23,42.173,3.182,3.182,0,0,1,26.173,39Z" transform="translate(-5.019 -1.726)" fill="#f2f2f2"/>
</svg>
